<svg width="28" height="26" viewBox="0 0 28 26" fill="none" xmlns="http://www.w3.org/2000/svg">
<path d="M14.0013 0C6.39618 0 0 4.88477 0 11.1505C0 16.7386 5.06766 21.2737 11.6667 22.1457C11.8185 22.1776 11.981 22.229 12.0846 22.2733C12.0748 22.3286 12.0982 22.5849 12.0664 22.8191V22.8204C12.0578 22.8702 11.9168 23.6873 11.8867 23.8577L11.888 23.8565C11.8379 24.1366 11.6774 24.6047 12.125 25.2615C12.3488 25.5899 12.853 25.8688 13.3047 25.8768C13.7564 25.8849 14.1354 25.7408 14.5508 25.5193C17.5828 23.9014 20.877 22.0757 23.4727 19.7829C26.0683 17.4901 28 14.6457 28 11.1505C28 4.88499 21.6064 0 14.0013 0ZM14.0013 1.94076C20.7308 1.94076 26 6.18942 26 11.1505C26 13.9596 24.486 16.2631 22.1263 18.3475C19.8636 20.3463 16.854 22.0556 13.9583 23.6088C13.9967 23.386 14.0443 23.1072 14.0443 23.1072L14.0469 23.092L14.0495 23.0769C14.0995 22.7129 14.2394 22.1667 13.9453 21.4533L13.944 21.452V21.4507C13.7216 20.9171 13.3098 20.6852 12.9805 20.5322C12.6511 20.3791 12.3394 20.3004 12.0807 20.2466L12.0417 20.239L12.0013 20.234C6.14243 19.486 2 15.606 2 11.1505C2 6.18964 7.27176 1.94076 14.0013 1.94076ZM10.8854 7.85149C10.5094 7.85149 10.2031 8.14625 10.2031 8.50852V13.4855C10.2031 13.8484 10.5087 14.1425 10.8854 14.1425C11.2614 14.1425 11.5677 13.8478 11.5677 13.4855V8.50852C11.5677 8.14625 11.2621 7.85149 10.8854 7.85149ZM13.2318 7.85149C13.1584 7.85149 13.085 7.86297 13.0143 7.88561C12.7357 7.97553 12.5482 8.22582 12.5482 8.50852V13.4855C12.5482 13.8484 12.8551 14.1425 13.2318 14.1425C13.6091 14.1425 13.9154 13.8478 13.9154 13.4855V10.4076L16.5651 13.8797C16.6931 14.0441 16.8973 14.1425 17.1107 14.1425C17.1833 14.1425 17.2562 14.1311 17.3268 14.1084C17.6068 14.0198 17.7943 13.7695 17.7943 13.4855V8.50726C17.7943 8.14498 17.4886 7.85149 17.112 7.85149C16.7353 7.85149 16.4284 8.14498 16.4284 8.50726V11.5877L13.7773 8.11431C13.6493 7.94999 13.4444 7.85149 13.2318 7.85149ZM6.30729 7.85276C5.93129 7.85276 5.625 8.14625 5.625 8.50852V13.4868C5.625 13.8497 5.93063 14.1438 6.30729 14.1438H8.89323C9.2699 14.1438 9.57489 13.8478 9.57422 13.4855C9.57422 13.1232 9.2699 12.8285 8.89323 12.8285H6.98828V8.50852C6.98828 8.14625 6.68396 7.85276 6.30729 7.85276ZM19.3932 7.85276C19.0172 7.85276 18.7109 8.14751 18.7109 8.50979V8.51105V10.9964V10.9977V10.9989V13.4855C18.7109 13.8484 19.0179 14.1425 19.3932 14.1425H21.9792C22.3558 14.1425 22.6628 13.8478 22.6628 13.4855C22.6628 13.1232 22.3558 12.8285 21.9792 12.8285H20.0755V11.6534H21.9792C22.3565 11.6534 22.6628 11.3587 22.6628 10.9964C22.6628 10.6335 22.3558 10.3394 21.9792 10.3394V10.3419H20.0755V9.16682H21.9792C22.3565 9.16682 22.6628 8.87206 22.6628 8.50979C22.6628 8.14751 22.3558 7.85276 21.9792 7.85276H19.3932Z" fill="black"/>
</svg>
