<svg width="26" height="26" viewBox="0 0 26 26" fill="none" xmlns="http://www.w3.org/2000/svg">
<path d="M21.167 13.0003C21.167 8.49004 17.5117 4.83331 13 4.83331C12.7239 4.83331 12.5 4.60946 12.5 4.33331C12.5 4.05717 12.7239 3.83331 13 3.83331C18.0641 3.83331 22.167 7.93787 22.167 13.0003C22.1668 13.2762 21.9429 13.5001 21.667 13.5003C21.391 13.5003 21.1672 13.2763 21.167 13.0003Z" fill="#002A7A"/>
<path d="M24.0557 13.0001C24.0557 6.89499 19.1064 1.94446 13 1.94446C12.7239 1.94446 12.5 1.7206 12.5 1.44446C12.5 1.16832 12.7239 0.944458 13 0.944458C19.6588 0.944458 25.0557 6.34278 25.0557 13.0001C25.0556 13.2762 24.8317 13.5001 24.5557 13.5001C24.2796 13.5001 24.0557 13.2762 24.0557 13.0001Z" fill="#002A7A"/>
<path d="M1.75013 1.6044C1.75013 1.6044 1.75013 1.6044 1.75013 1.60573C-1.85669 5.21117 0.290638 13.203 6.54371 19.456C12.7968 25.709 20.7888 27.8563 24.3943 24.2508C25.4865 23.1585 25.9841 20.676 25.9841 20.676C26.0653 20.2675 25.8271 19.8112 25.4546 19.6622L18.9088 17.0466C18.5363 16.8976 17.9842 17.0226 17.6835 17.3246L15.7876 19.2218C15.4257 19.5824 14.9042 19.6742 14.4904 19.4879C14.4585 19.4706 14.4266 19.4547 14.3946 19.4374C14.3813 19.4294 14.3667 19.4214 14.3521 19.4134C12.9125 18.6285 11.3865 17.4843 9.95098 16.0501C8.51543 14.6159 7.37258 13.0899 6.58762 11.6504C6.58097 11.6371 6.57298 11.6238 6.56633 11.6105C6.54904 11.5772 6.53174 11.5453 6.51311 11.5107C6.32685 11.0969 6.41865 10.5754 6.7792 10.2136L8.67774 8.31504C8.97975 8.01303 9.10481 7.46224 8.9558 7.08972L6.33883 0.54538C6.18982 0.172862 5.73347 -0.0652832 5.32503 0.0158725C5.32503 0.0158725 2.84243 0.51212 1.75013 1.6044Z" fill="#002A7A"/>
</svg>
