<svg width="25" height="25" viewBox="0 0 25 25" fill="none" xmlns="http://www.w3.org/2000/svg">
<g clip-path="url(#clip0_2379_970)">
<path d="M12.3616 2.06055C8.37485 2.06055 5.15039 5.28501 5.15039 9.2718C5.15039 14.6802 12.3616 22.6641 12.3616 22.6641C12.3616 22.6641 19.5729 14.6802 19.5729 9.2718C19.5729 5.28501 16.3484 2.06055 12.3616 2.06055ZM7.21075 9.2718C7.21075 6.4285 9.51835 4.1209 12.3616 4.1209C15.2049 4.1209 17.5125 6.4285 17.5125 9.2718C17.5125 12.2387 14.5456 16.6788 12.3616 19.45C10.2189 16.6994 7.21075 12.2078 7.21075 9.2718Z" fill="#373F41"/>
<path d="M12.3626 11.8472C13.7849 11.8472 14.938 10.6941 14.938 9.27173C14.938 7.84936 13.7849 6.69629 12.3626 6.69629C10.9402 6.69629 9.78711 7.84936 9.78711 9.27173C9.78711 10.6941 10.9402 11.8472 12.3626 11.8472Z" fill="#373F41"/>
</g>
<defs>
<clipPath id="clip0_2379_970">
<rect width="24.7243" height="24.7243" fill="white"/>
</clipPath>
</defs>
</svg>
