<svg width="40" height="29" viewBox="0 0 40 29" fill="none" xmlns="http://www.w3.org/2000/svg">
<path d="M37.2411 0H2.75892C1.23694 0 0 1.23922 0 2.76224V26.2385C0 27.7616 1.23694 29.0008 2.75892 29.0008H37.2411C38.7623 29.0008 40 27.7616 40 26.2385V2.76224C40 1.23922 38.7631 0 37.2411 0ZM38.6202 26.2385C38.6202 27.0001 38.0009 27.6193 37.2411 27.6193H2.75892C1.99832 27.6193 1.37985 27.0001 1.37985 26.2385V2.76224C1.37985 2.00073 1.9991 1.38151 2.75892 1.38151H37.2411C38.0017 1.38151 38.6202 2.00073 38.6202 2.76224V26.2385Z" fill="#002A7A"/>
<path d="M35.3935 5.21977C35.1327 4.94066 34.6969 4.92737 34.4181 5.18772L24.1087 14.8489C24.1087 14.8489 24.1025 14.852 24.1001 14.8544L20.9414 17.8176C20.4135 18.3148 19.5865 18.314 19.0571 17.8176L15.8983 14.8552C15.8983 14.8552 15.8937 14.8528 15.8913 14.8513L5.58188 5.18694C5.3031 4.9258 4.86736 4.93987 4.60654 5.21899C4.3465 5.49733 4.36055 5.93437 4.63855 6.19473L14.417 15.3587L4.63855 24.5203C4.36055 24.7806 4.3465 25.2177 4.60654 25.496C4.86814 25.7751 5.30388 25.7892 5.58188 25.5281L15.4267 16.3039L18.1145 18.8222C18.4573 19.1443 18.865 19.3507 19.2929 19.4641C19.3601 19.4821 19.4257 19.5087 19.4936 19.5212C19.5529 19.5321 19.6131 19.5306 19.6724 19.5376C19.7818 19.5509 19.8903 19.5681 20.0004 19.5681C20.098 19.5681 20.1948 19.5517 20.2917 19.5415C20.3635 19.5337 20.4354 19.5345 20.5064 19.522C20.5509 19.5134 20.5931 19.4954 20.6376 19.4852C21.0913 19.3781 21.5247 19.1631 21.8855 18.8238L24.5733 16.3047L34.4181 25.5281C34.5517 25.6532 34.7204 25.7141 34.8898 25.7141C35.0733 25.7141 35.2576 25.6406 35.3935 25.4952C35.6535 25.2169 35.6395 24.7798 35.3615 24.5195L25.5831 15.3579L35.3615 6.19395C35.6395 5.93359 35.6535 5.49654 35.3935 5.21821V5.21977Z" fill="#002A7A"/>
</svg>
