<svg width="30" height="30" viewBox="0 0 30 30" fill="none" xmlns="http://www.w3.org/2000/svg">
<path d="M15 0C6.71535 0 0 6.71535 0 15C0 23.2846 6.71535 30 15 30C23.2846 30 30 23.2846 30 15C30 6.71535 23.2846 0 15 0ZM6.67375 7.38233H23.3263C23.7839 7.38233 24.2026 7.54875 24.5263 7.82309L17.1349 14.2251L16.8644 14.4591L15.0013 16.0726L13.1382 14.4591L12.8677 14.2251L5.47629 7.82309C5.80004 7.54875 6.21869 7.38233 6.67505 7.38233H6.67375ZM4.28014 20.2228V9.77594C4.28014 9.32218 4.44266 8.90743 4.7131 8.58629L12.0876 14.9727L4.68709 21.3812C4.43226 21.064 4.28014 20.6609 4.28014 20.2228ZM23.3276 22.6164H6.67375C6.21609 22.6164 5.79743 22.4499 5.47499 22.1756L12.8989 15.7463L15.0026 17.5678L17.105 15.7463L24.5276 22.1756C24.2052 22.4499 23.7865 22.6164 23.3276 22.6164ZM25.3142 21.3812L17.915 14.9714L25.2895 8.58629C25.5586 8.90873 25.7225 9.32348 25.7225 9.77594V20.2228C25.7225 20.6609 25.5703 21.064 25.3155 21.3812H25.3142Z" fill="white"/>
</svg>
