<svg width="21" height="21" viewBox="0 0 21 21" fill="none" xmlns="http://www.w3.org/2000/svg">
<path d="M17 9.91699C17 6.32718 14.091 3.41699 10.5 3.41699C10.2239 3.41699 10 3.19313 10 2.91699C10 2.64085 10.2239 2.41699 10.5 2.41699C14.6434 2.41699 18 5.77501 18 9.91699C18 10.1931 17.7761 10.417 17.5 10.417C17.2239 10.417 17 10.1931 17 9.91699Z" fill="white"/>
<path d="M19.333 9.91602C19.3328 5.03819 15.3789 1.08301 10.5 1.08301C10.2239 1.08301 10 0.85915 10 0.583008C10 0.306865 10.2239 0.0830078 10.5 0.0830078C15.9313 0.0830078 20.3328 4.48598 20.333 9.91602C20.333 10.1922 20.1091 10.416 19.833 10.416C19.557 10.4158 19.333 10.192 19.333 9.91602Z" fill="white"/>
<path d="M1.41357 1.29588C1.41357 1.29588 1.41357 1.29588 1.41357 1.29695C-1.49964 4.20908 0.234746 10.6641 5.28531 15.7147C10.3359 20.7653 16.7909 22.4996 19.703 19.5875C20.5853 18.7053 20.9872 16.7001 20.9872 16.7001C21.0527 16.3702 20.8604 16.0016 20.5595 15.8813L15.2725 13.7686C14.9716 13.6483 14.5257 13.7493 14.2828 13.9932L12.7515 15.5256C12.4593 15.8168 12.038 15.8909 11.7038 15.7405C11.678 15.7265 11.6522 15.7136 11.6264 15.6996C11.6157 15.6932 11.6039 15.6868 11.5921 15.6803C10.4294 15.0463 9.19681 14.1222 8.03733 12.9637C6.87785 11.8053 5.95478 10.5728 5.32077 9.41009C5.3154 9.39934 5.30895 9.3886 5.30358 9.37785C5.28961 9.35099 5.27564 9.3252 5.26059 9.29726C5.11015 8.96306 5.1843 8.54182 5.47551 8.24953L7.00895 6.7161C7.25288 6.47217 7.35389 6.02729 7.23354 5.7264L5.11982 0.440506C4.99947 0.139622 4.63088 -0.0527296 4.30099 0.0128203C4.30099 0.0128203 2.29581 0.413641 1.41357 1.29588Z" fill="white"/>
</svg>
