<svg width="30" height="30" viewBox="0 0 30 30" fill="none" xmlns="http://www.w3.org/2000/svg">
<g clip-path="url(#clip0_2332_1167)">
<path d="M15.0006 0C6.71532 0 0 6.71532 0 15.0006C0 23.286 6.71532 30.0013 15.0006 30.0013C23.286 30.0013 30.0013 23.286 30.0013 15.0006C30.0013 6.71532 23.2847 0 15.0006 0ZM25.3248 20.1666C25.3248 20.2323 25.3248 20.2979 25.3209 20.3623C25.2076 23.6286 22.0598 25.943 18.8838 25.1754C17.8921 24.9358 16.9313 24.619 16.0078 24.2313C11.3661 22.2852 7.65166 18.5618 5.71974 13.911C5.36556 13.0584 5.07062 12.1749 4.84137 11.2656C4.02739 8.03417 6.33023 4.79887 9.66084 4.68038C9.72782 4.6778 9.7935 4.67651 9.86047 4.67651C10.082 4.67651 10.2803 4.81561 10.355 5.02554L12.3926 9.73168C12.7068 10.6152 12.4853 11.6005 11.822 12.2638L10.9668 13.0906C10.7607 13.2967 10.7607 13.6303 10.9668 13.8363L12.2419 15.1114L15.3188 18.1883L16.7278 19.5973C16.9338 19.8034 17.2674 19.8034 17.4735 19.5973L18.3467 18.7524C19.0345 18.0647 20.0558 17.8341 20.9728 18.1612L24.9538 19.6488C25.1728 19.7274 25.3235 19.9322 25.3248 20.164V20.1679V20.1666Z" fill="white"/>
</g>
<defs>
<clipPath id="clip0_2332_1167">
<rect width="30" height="30" fill="white"/>
</clipPath>
</defs>
</svg>
